# xmcd CD database file
#
# Track frame offsets:
#	151
#	15762
#	32529
#	51015
#	72268
#	87904
#	102276
#	121239
#	140883
#	163309
#	177335
#	194443
#	214870
#	230513
#	246154
#	257528
#	263583
#	277036
#
# Disc length: 3868 seconds
#
# Revision: 0
# Processed by: cddbd v1.5.1PL2 Copyright (c) Steve Scherf et al.
# Submitted via: CDex 1.51
#
DISCID=fe0f1a12
DTITLE=stacey kent - the boy next door
DYEAR=2003
DGENRE=Jazz
TTITLE0=The Best Is Yes To Come
TTITLE1=The Boy Next Door
TTITLE2=The Trolley Song
TTITLE3=Say It Is't So
TTITLE4=Too Darn Hot
TTITLE5=Makin Whoopee
TTITLE6=What The World Needs Now Is Love
TTITLE7=You've Got a Friend
TTITLE8=I got It Bad
TTITLE9=Ooh-Shoo-Be-Doo-Bee
TTITLE10=People Will Say We're In Love
TTITLE11='Tis Autumn
TTITLE12=All I Do Is Dream of You
TTITLE13=I Get Along Without You Very Well
TTITLE14=You're The Top
TTITLE15=Bookends
TTITLE16=Que reste-t-il de nos amours
TTITLE17=Que feras tu de ta vie
EXTD=YEAR: 2003
EXTT0=
EXTT1=
EXTT2=
EXTT3=
EXTT4=
EXTT5=
EXTT6=
EXTT7=
EXTT8=
EXTT9=
EXTT10=
EXTT11=
EXTT12=
EXTT13=
EXTT14=
EXTT15=
EXTT16=
EXTT17=
PLAYORDER=
